<svg width="57" height="57" viewBox="0 0 57 57" fill="none" xmlns="http://www.w3.org/2000/svg">
<g clip-path="url(#clip0_481_567)">
<path d="M28.5 3.876C31.8254 3.876 35.0504 4.52694 38.084 5.80944C41.0161 7.04976 43.6495 8.82588 45.9124 11.0876C48.1753 13.3505 49.9514 15.9839 51.1906 18.916C52.4731 21.9496 53.124 25.1735 53.124 28.5C53.124 31.8265 52.4731 35.0504 51.1906 38.084C49.9502 41.0161 48.1741 43.6495 45.9124 45.9124C43.6495 48.1753 41.0161 49.9514 38.084 51.1906C35.0504 52.4731 31.8265 53.124 28.5 53.124C25.1735 53.124 21.9496 52.4731 18.916 51.1906C15.9839 49.9502 13.3505 48.1741 11.0876 45.9124C8.82474 43.6495 7.04862 41.0161 5.80944 38.084C4.52694 35.0504 3.876 31.8265 3.876 28.5C3.876 25.1735 4.52694 21.9496 5.80944 18.916C7.04976 15.9839 8.82588 13.3505 11.0876 11.0876C13.3505 8.82474 15.9839 7.04862 18.916 5.80944C21.9496 4.52694 25.1735 3.876 28.5 3.876ZM28.5 0C12.76 0 0 12.76 0 28.5C0 44.24 12.76 57 28.5 57C44.24 57 57 44.24 57 28.5C57 12.76 44.24 0 28.5 0Z" fill="#8D6207"/>
<path d="M28.4999 3.876C29.7311 3.876 31.7637 5.7285 33.5296 9.86784C34.5316 12.2185 35.3251 14.9864 35.8848 18.0941C36.4776 21.3807 36.7786 24.8816 36.7786 28.5C36.7786 32.1184 36.4776 35.6182 35.8848 38.9059C35.3239 42.0147 34.5316 44.7815 33.5296 47.1322C31.7637 51.2715 29.7311 53.124 28.4999 53.124C27.2687 53.124 25.2361 51.2715 23.4702 47.1322C22.4682 44.7815 21.6747 42.0136 21.115 38.9059C20.5222 35.6193 20.2212 32.1184 20.2212 28.5C20.2212 24.8816 20.5222 21.3818 21.115 18.0941C21.6759 14.9853 22.4682 12.2185 23.4702 9.86784C25.2361 5.7285 27.2687 3.876 28.4999 3.876ZM28.4999 0C21.7864 0 16.3452 12.76 16.3452 28.5C16.3452 44.24 21.7876 57 28.4999 57C35.2122 57 40.6546 44.24 40.6546 28.5C40.6546 12.76 35.2134 0 28.4999 0Z" fill="#8D6207"/>
<path d="M56.5007 26.562H0.500488V30.438H56.5007V26.562Z" fill="#8D6207"/>
</g>
<defs>
<clipPath id="clip0_481_567">
<rect width="57" height="57" fill="white"/>
</clipPath>
</defs>
</svg>
