<svg width="25" height="25" viewBox="0 0 25 25" fill="none" xmlns="http://www.w3.org/2000/svg">
<path d="M19.075 4.4502C18.265 4.4502 17.615 5.1052 17.615 5.9102C17.615 6.7152 18.27 7.3752 19.075 7.3752C19.88 7.3752 20.535 6.7202 20.535 5.9102C20.535 5.1002 19.88 4.4502 19.075 4.4502Z" fill="white"/>
<path d="M12.5749 6.3252C9.18993 6.3252 6.42993 9.0802 6.42993 12.4702C6.42993 15.8602 9.18493 18.6152 12.5749 18.6152C15.9649 18.6152 18.7199 15.8602 18.7199 12.4702C18.7199 9.0802 15.9649 6.3252 12.5749 6.3252ZM12.5749 16.4052C10.4049 16.4052 8.63993 14.6402 8.63993 12.4702C8.63993 10.3002 10.4049 8.5352 12.5749 8.5352C14.7449 8.5352 16.5099 10.3002 16.5099 12.4702C16.5099 14.6402 14.7449 16.4052 12.5749 16.4052Z" fill="white"/>
<path d="M17.45 24.94H7.49C3.36 24.94 0 21.58 0 17.45V7.49C0 3.36 3.36 0 7.49 0H17.45C21.58 0 24.945 3.36 24.945 7.495V17.455C24.945 21.585 21.585 24.95 17.45 24.95V24.94ZM7.49 2.345C4.65 2.345 2.345 4.655 2.345 7.49V17.45C2.345 20.29 4.655 22.595 7.49 22.595H17.45C20.29 22.595 22.595 20.285 22.595 17.45V7.49C22.595 4.65 20.285 2.345 17.45 2.345H7.49Z" fill="white"/>
</svg>
