<svg width="56" height="56" viewBox="0 0 56 56" fill="none" xmlns="http://www.w3.org/2000/svg">
<g clip-path="url(#clip0_481_571)">
<path d="M21.1354 31.3198C12.9661 31.3198 6.32007 24.6737 6.32007 16.5055C6.32007 8.33739 12.9673 1.69019 21.1354 1.69019C29.3036 1.69019 35.9497 8.33627 35.9497 16.5044C35.9497 24.6726 29.3036 31.3187 21.1354 31.3187V31.3198ZM21.1354 6.31243C15.5153 6.31243 10.9434 10.8843 10.9434 16.5044C10.9434 22.1246 15.5153 26.6964 21.1354 26.6964C26.7556 26.6964 31.3274 22.1246 31.3274 16.5044C31.3274 10.8843 26.7556 6.31243 21.1354 6.31243Z" fill="#8D6207"/>
<path d="M39.9604 54.8855C38.6836 54.8855 37.6487 53.8506 37.6487 52.5738V44.5311C37.6487 42.0201 35.6137 39.985 33.1026 39.985H9.16822C6.65718 39.985 4.62214 42.0201 4.62214 44.5311V52.5738C4.62214 53.8506 3.58726 54.8855 2.31046 54.8855C1.03366 54.8855 -0.0012207 53.8506 -0.0012207 52.5738V44.5311C-0.0012207 39.4676 4.10358 35.3628 9.1671 35.3628H33.1015C38.165 35.3628 42.2698 39.4676 42.2698 44.5311V52.5738C42.2698 53.8506 41.2349 54.8855 39.9581 54.8855H39.9604Z" fill="#8D6207"/>
<path d="M49.0493 16.5054C49.0493 23.3833 43.9006 29.0807 37.2545 29.9465C36.3205 30.0686 35.4939 29.3327 35.4939 28.3908V27.2842C35.4939 26.5025 36.0707 25.8461 36.8435 25.733C41.3493 25.0778 44.8201 21.1892 44.8201 16.5054C44.8201 11.8215 41.3493 7.93175 36.8435 7.27655C36.0707 7.16455 35.4939 6.50711 35.4939 5.72535V4.61879C35.4939 3.67687 36.3205 2.94215 37.2545 3.06311C43.9006 3.92887 49.0493 9.62631 49.0493 16.5054Z" fill="#8D6207"/>
<path d="M55.9999 46.2684V53.1485C55.9999 54.1073 55.2226 54.8857 54.2628 54.8857H53.1136C52.1549 54.8857 51.3765 54.1084 51.3765 53.1485V46.2684C51.3765 42.7986 48.5631 39.9852 45.0933 39.9852C44.1346 39.9852 43.3562 39.2079 43.3562 38.2481V37.0989C43.3562 36.1402 44.1335 35.3618 45.0933 35.3618C51.1156 35.3618 55.9988 40.2439 55.9988 46.2673L55.9999 46.2684Z" fill="#8D6207"/>
</g>
<defs>
<clipPath id="clip0_481_571">
<rect width="56" height="56" fill="white"/>
</clipPath>
</defs>
</svg>
