<svg width="56" height="56" viewBox="0 0 56 56" fill="none" xmlns="http://www.w3.org/2000/svg">
<path d="M38.4799 53.8609C37.2636 53.8609 36.1794 53.0791 35.7997 51.9188L22.9914 12.8521L15.7607 29.3228C15.3104 30.3476 14.2968 31.0107 13.1768 31.0107H2.97924C1.42132 31.0107 0.157959 29.7473 0.157959 28.1894C0.157959 26.6315 1.42132 25.3681 2.97924 25.3681H11.3333L20.7895 3.82714C21.2599 2.75642 22.3407 2.08666 23.51 2.14266C24.6781 2.19978 25.6906 2.97034 26.0546 4.0825L38.2212 41.1903L41.9888 27.2631C42.3215 26.0323 43.4381 25.1777 44.7127 25.1777H53.022C54.581 25.1777 55.8432 26.4411 55.8432 27.999C55.8432 29.5569 54.5799 30.8203 53.022 30.8203H46.8732L41.206 51.7732C40.88 52.9772 39.8026 53.8239 38.556 53.8575C38.5314 53.8575 38.5056 53.8575 38.481 53.8575L38.4799 53.8609Z" fill="#8D6207"/>
</svg>
