<svg width="24" height="25" viewBox="0 0 24 25" fill="none" xmlns="http://www.w3.org/2000/svg">
<path d="M22.2673 10.115C22.0705 10.135 21.8737 10.145 21.6769 10.145C19.5169 10.145 17.5009 9.01 16.3153 7.125V17.4C16.3153 21.595 13.0513 24.995 9.02411 24.995C4.99691 24.995 1.73291 21.6 1.73291 17.405C1.73291 13.21 4.99691 9.81 9.02411 9.81C9.17771 9.81 9.32651 9.825 9.47531 9.835V13.58C9.32651 13.56 9.17771 13.535 9.02411 13.535C6.96971 13.535 5.30411 15.27 5.30411 17.41C5.30411 19.55 6.96971 21.285 9.02411 21.285C11.0785 21.285 12.8977 19.6 12.8977 17.455L12.9313 0H16.3681C16.6945 3.21 19.1761 5.72 22.2673 5.955V10.115Z" fill="white"/>
</svg>
